<svg xmlns="http://www.w3.org/2000/svg" width="640" height="480" viewBox="0 0 640 480"><defs><pattern id="grain" width="8" height="8" patternUnits="userSpaceOnUse"><circle cx="1" cy="1" r=".7" fill="#2f5649" opacity=".08"/></pattern></defs><rect width="640" height="480" fill="#dfe5d7"/><circle cx="320" cy="220" r="155" fill="#f7f0dd"/><path d="M-10 370q180-100 300 26t370-40v140H0" fill="#b7c6a6"/><path d="M-20 280Q90 173 80-10m-8 147L4 65m67 96 94-89M650 290Q535 168 575-20m-8 177 84-110m-85 89-80-72" stroke="#607d65" stroke-width="11" fill="none"/><g fill="#8ea782"><ellipse cx="45" cy="76" rx="22" ry="45" transform="rotate(-43 45 76)"/><ellipse cx="127" cy="112" rx="23" ry="49" transform="rotate(48 127 112)"/><ellipse cx="35" cy="209" rx="23" ry="49" transform="rotate(-45 35 209)"/><ellipse cx="578" cy="80" rx="24" ry="52" transform="rotate(35 578 80)"/><ellipse cx="535" cy="159" rx="24" ry="50" transform="rotate(-47 535 159)"/><ellipse cx="618" cy="214" rx="24" ry="50" transform="rotate(40 618 214)"/></g><g transform="translate(174 87) scale(2.3)"><path d="M30 46 24 12 48 28Q64 20 80 28L102 11 98 49" fill="#747e80"/><path d="m31 24 4 20 11-11m47-9-5 20-10-11" fill="#dba9a0"/><ellipse cx="64" cy="66" rx="40" ry="37" fill="#929997"/><path d="M44 56Q64 72 85 54L91 84Q65 114 37 85Z" fill="#f5efe0"/><path d="m49 31 6 19m9-21v18m15-15-6 17M26 57l13 6m-13 8 12 3m63-17-13 6m13 8-12 3" stroke="#515e60" stroke-width="5" stroke-linecap="round"/><ellipse cx="48" cy="63" rx="9" ry="11" fill="#b6c371"/><ellipse cx="80" cy="63" rx="9" ry="11" fill="#b6c371"/><ellipse cx="49" cy="63" rx="4" ry="9" fill="#26353a"/><ellipse cx="79" cy="63" rx="4" ry="9" fill="#26353a"/><path d="m58 80 6 5 6-5" fill="#b67774"/><path d="M64 85v6m0-1q-8 7-13 0m13 0q8 7 13 0m-29-9-23-3m24 9-25 4m56-10 24-3m-24 9 25 4" fill="none" stroke="#47575b" stroke-width="1.8" stroke-linecap="round"/></g><path d="M0 426q110-44 198-11m257 12q110-29 185-5" stroke="#81966d" stroke-width="2" fill="none"/><rect width="640" height="480" fill="url(#grain)"/></svg>